<?xml version="1.0" encoding="iso-8859-1"?>
<!-- Generator: Adobe Illustrator 19.0.0, SVG Export Plug-In . SVG Version: 6.00 Build 0)  -->
<svg version="1.1" id="Layer_1" xmlns="http://www.w3.org/2000/svg" xmlns:xlink="http://www.w3.org/1999/xlink" x="0px" y="0px"
	 viewBox="0 0 512 512" style="enable-background:new 0 0 512 512;" xml:space="preserve">
<path style="fill:#F2F2F4;" d="M0,0v512h512V0H0z"/>
<path style="fill:#DFDFE1;" d="M256,0v512h256V0H256z"/>
<rect x="36.571" y="36.571" style="fill:#FF6643;" width="91.429" height="91.429"/>
<path style="fill:#DFDFE1;" d="M512,164.571V0H0v164.571H512z M164.571,54.857h237.714v54.857H164.571V54.857z M54.857,54.857
	h54.857v54.857H54.857V54.857z"/>
<polygon style="fill:#CFCDD2;" points="256,0 256,54.857 402.286,54.857 402.286,109.714 256,109.714 256,164.571 512,164.571 
	512,0 "/>
<polygon style="fill:#88888F;" points="365.714,310.857 283.429,310.857 283.429,228.571 228.571,228.571 228.571,310.857 
	146.286,310.857 146.286,365.714 228.571,365.714 228.571,448 283.429,448 283.429,365.714 365.714,365.714 "/>
<rect x="283.429" y="310.857" style="fill:#56545A;" width="82.286" height="54.857"/>
<g>
</g>
<g>
</g>
<g>
</g>
<g>
</g>
<g>
</g>
<g>
</g>
<g>
</g>
<g>
</g>
<g>
</g>
<g>
</g>
<g>
</g>
<g>
</g>
<g>
</g>
<g>
</g>
<g>
</g>
</svg>
